<svg viewBox="0 0 24 24" fill="none" xmlns="http://www.w3.org/2000/svg">
<rect width="24" height="24" fill="#FAE100"/>
<path d="M11.2881 3.57134C10.7761 3.62734 9.9721 3.85134 9.4601 4.08734C7.7681 4.85534 6.48009 6.45134 6.08809 8.25934C5.79609 9.61134 5.92809 10.6833 6.55209 11.9393C6.95209 12.7553 7.4081 13.4113 8.2361 14.3713C9.1041 15.3753 9.56409 16.0073 10.0641 16.8793C10.5321 17.6873 10.9801 18.6713 11.3441 19.6793C11.4481 19.9633 11.5481 20.2273 11.5721 20.2673C11.6601 20.4393 12.0081 20.5153 12.2241 20.4153C12.3681 20.3513 12.4281 20.2433 12.6161 19.7153C13.1481 18.1913 13.9881 16.5833 14.8401 15.4553C14.9961 15.2513 15.3681 14.7993 15.6681 14.4473C16.2921 13.7233 16.7041 13.1833 17.0201 12.6713C18.0921 10.9393 18.3001 9.41534 17.7041 7.62334C17.2601 6.28734 16.3001 5.11534 15.0441 4.36334C14.4241 3.99534 13.6241 3.71534 12.8761 3.60734C12.4961 3.54734 11.6601 3.53134 11.2881 3.57134ZM12.4201 7.60334C13.1321 7.75134 13.7601 8.35934 13.9521 9.07934C14.0241 9.33934 14.0241 9.82734 13.9521 10.0873C13.8081 10.6353 13.3801 11.1553 12.8761 11.4033C11.7721 11.9393 10.4761 11.3993 10.0641 10.2273C9.93209 9.85534 9.93209 9.31134 10.0641 8.93934C10.2441 8.42734 10.5801 8.03534 11.0521 7.78334C11.4761 7.55934 11.9281 7.49934 12.4201 7.60334Z" fill="#007DFF"/>
</svg>
